<svg width="16" height="16" viewBox="0 0 16 16" fill="none" xmlns="http://www.w3.org/2000/svg">
<g clip-path="url(#clip0)">
<path d="M3.86151 8.43906L11.262 15.8191C11.5044 16.0607 11.897 16.0603 12.1391 15.8178C12.3809 15.5753 12.3803 15.1826 12.1378 14.9407L5.17785 7.99997L12.1381 1.05925C12.3805 0.817379 12.3812 0.42485 12.1393 0.18235C12.018 0.0607881 11.859 6.63539e-06 11.7 6.62149e-06C11.5415 6.60763e-06 11.3831 0.0603818 11.262 0.1811L3.86151 7.56091C3.74473 7.6771 3.6792 7.83522 3.6792 7.99997C3.6792 8.16472 3.74491 8.32266 3.86151 8.43906Z" fill="#C30028"/>
</g>
<defs>
<clipPath id="clip0">
<rect x="16" y="16" width="16" height="16" transform="rotate(-180 16 16)" fill="white"/>
</clipPath>
</defs>
</svg>
