<svg width="50" height="50" viewBox="0 0 50 50" fill="none" xmlns="http://www.w3.org/2000/svg">
<g clip-path="url(#clip0)">
<path d="M7.55269 19.2097L2.32422 32.5717L6.97164 29.0864L10.588 29.8019C12.0346 26.0141 13.7026 22.7132 15.5173 19.8279L7.55269 19.2097Z" fill="#AFB6BB"/>
<path d="M30.7907 42.4476L17.4287 47.676L20.914 43.0285L20.1985 39.4122C23.9864 37.9656 27.2872 36.2975 30.1726 34.4829L30.7907 42.4476Z" fill="#AFB6BB"/>
<path d="M13.2172 37.7302L12.2697 36.7827C9.8758 34.975 6.35171 36.0267 5.09654 38.787L0 49.9999L11.2128 44.9034C13.9732 43.6483 15.0258 40.1241 13.2172 37.7302Z" fill="#EBBA16"/>
<path d="M49.9629 0.0377269C49.9629 0.0377269 22.0769 -2.28638 9.87695 29.6668L13.976 33.7659L16.2355 36.0253L20.3346 40.1244C52.2861 27.9237 49.9629 0.0377269 49.9629 0.0377269Z" fill="#E7ECED"/>
<path d="M24.138 25.8623H18.3285L11.0381 38.9622L24.138 31.0346V25.8623Z" fill="#AFB6BB"/>
<path d="M32.6689 3.65899L46.3413 17.3313C50.6257 8.03141 49.962 0.0375329 49.962 0.0375329C49.962 0.0375329 41.9689 -0.625548 32.6689 3.65899Z" fill="#DD352E"/>
<path d="M31.9484 24.6202C35.5782 24.6202 38.5208 21.6776 38.5208 18.0478C38.5208 14.4179 35.5782 11.4753 31.9484 11.4753C28.3185 11.4753 25.376 14.4179 25.376 18.0478C25.376 21.6776 28.3185 24.6202 31.9484 24.6202Z" fill="#366DB6"/>
<path d="M31.9522 22.1943C30.8901 22.1943 29.8272 21.79 29.0186 20.9814C27.4013 19.3641 27.4013 16.7323 29.0186 15.1151C30.6359 13.4978 33.2686 13.4978 34.885 15.1151C35.2221 15.4522 35.2221 15.997 34.885 16.334C34.5487 16.6711 34.0023 16.6711 33.666 16.334C32.7203 15.3883 31.1825 15.3892 30.2376 16.334C29.2928 17.2797 29.2928 18.8167 30.2376 19.7624C31.1833 20.7081 32.7212 20.709 33.666 19.7624C34.0023 19.4253 34.5487 19.4253 34.885 19.7624C35.2221 20.0995 35.2221 20.6443 34.885 20.9813C34.0772 21.7891 33.0151 22.1943 31.9522 22.1943Z" fill="white"/>
</g>
<defs>
<clipPath id="clip0">
<rect width="50" height="50" fill="white"/>
</clipPath>
</defs>
</svg>
