<svg width="50" height="50" viewBox="0 0 50 50" fill="none" xmlns="http://www.w3.org/2000/svg">
<g clip-path="url(#clip0)">
<path d="M1.78914 34.1594C1.46422 34.1591 1.16805 33.9731 1.02673 33.6805C0.885405 33.3879 0.923805 33.0403 1.12558 32.7856C1.75981 31.9995 2.29675 31.1396 2.72473 30.2246C1.97685 30.1461 1.27482 29.8263 0.724733 29.3136C0.179273 28.7519 -0.0784145 27.971 0.0255807 27.195C0.143757 26.5134 0.527863 25.9068 1.09338 25.5085C2.13051 24.7641 3.5464 24.8439 4.49338 25.7C5.13168 26.3859 5.41013 27.332 5.24507 28.2543C5.22558 28.389 5.20016 28.5204 5.16965 28.6492C5.71795 28.6306 6.28575 28.5924 6.87219 28.5543C7.67219 28.5017 8.49762 28.4467 9.31711 28.4416H9.32219C9.79023 28.4399 10.171 28.818 10.1726 29.2861C10.1743 29.7541 9.79616 30.1348 9.32812 30.1365C8.55948 30.1365 7.75778 30.1941 6.98321 30.245C6.16711 30.2992 5.32897 30.3543 4.51711 30.3543L4.43829 30.5365C3.93312 31.7229 3.26666 32.8339 2.45778 33.8382C2.29608 34.0423 2.04953 34.1607 1.78914 34.1594ZM2.70524 26.695C2.48353 26.6933 2.26667 26.7599 2.08406 26.8856C1.88837 27.0155 1.75144 27.2169 1.7027 27.4467C1.67653 27.7048 1.76805 27.961 1.95185 28.1441C2.37515 28.4556 2.88908 28.6194 3.41456 28.6102C3.48411 28.4178 3.53519 28.2191 3.56711 28.017C3.65025 27.6288 3.55337 27.2238 3.30355 26.9153C3.1404 26.7668 2.92576 26.6877 2.70524 26.695Z" fill="#DF4D60"/>
<path d="M48.4917 23.983L45.4748 23.6525C44.5464 21.667 43.206 19.9018 41.5425 18.4745L41.434 18.4262C41.7006 18.2038 41.9143 17.9247 42.0595 17.6093C42.3088 17.0434 42.473 16.4437 42.5468 15.8296C42.6676 14.6509 42.6472 13.462 42.4857 12.2881C42.5109 11.3405 42.1863 10.4168 41.5739 9.69319C40.4238 8.68387 38.5315 10.0703 37.6213 10.8271C36.5456 11.7056 35.7071 12.8395 35.1823 14.1254C35.0473 14.4733 34.944 14.8326 34.8738 15.1991C34.8581 15.2987 34.849 15.3992 34.8467 15.5L34.8306 15.4915C33.8103 15.1243 32.7688 14.8186 31.7119 14.5762L16.932 15.644C12.5591 17.6525 8.88111 21.5084 7.88957 26.2881C6.65227 32.2542 10.0845 37.7542 15.0083 40.8898C15.1693 40.9915 15.3303 41.0932 15.4998 41.1949L16.0422 48.7881C16.0778 49.2307 16.4456 49.5728 16.8897 49.5762H22.0931C22.5372 49.5728 22.905 49.2307 22.9406 48.7881L23.2711 44.0678C25.805 44.6327 28.4322 44.6327 30.9661 44.0678L31.2966 48.7881C31.3322 49.2307 31.7 49.5728 32.1441 49.5762H37.3475C37.7916 49.5728 38.1594 49.2307 38.195 48.7881L38.7374 41.1949C40.3188 40.2595 41.7502 39.091 42.9832 37.7288H42.9917C43.3874 37.2948 43.7554 36.8363 44.0934 36.3559C44.6357 35.6125 45.0987 34.8144 45.4748 33.9746L48.4917 33.644C49.3511 33.5489 50.0011 32.8222 50.0002 31.9576V25.6695C50.0011 24.8048 49.3511 24.0781 48.4917 23.983Z" fill="#FB7B76"/>
<path d="M38.1349 27.5422C36.2628 27.5422 34.7451 26.0245 34.7451 24.1524C34.7451 23.6844 35.1245 23.3049 35.5926 23.3049C36.0606 23.3049 36.44 23.6844 36.44 24.1524C36.44 25.0885 37.1989 25.8473 38.1349 25.8473C39.071 25.8473 39.8299 25.0885 39.8299 24.1524C39.8299 23.6844 40.2093 23.3049 40.6773 23.3049C41.1454 23.3049 41.5248 23.6844 41.5248 24.1524C41.5248 26.0245 40.0071 27.5422 38.1349 27.5422Z" fill="#3F5C6C"/>
<path d="M20.5852 18.5254C16.8783 17.1974 14.4056 13.6834 14.4072 9.74578C14.404 8.27252 14.7526 6.81979 15.4242 5.5085C17.3252 1.77667 21.4806 -0.230469 25.5855 0.600393C29.6904 1.43125 32.7381 4.89636 33.0383 9.07372C33.3384 13.2511 30.8173 17.1163 26.8734 18.5254H20.5852Z" fill="#F0C419"/>
<path d="M41.525 33.4745V33.466C41.5235 33.1633 41.3606 32.8843 41.0976 32.7342C40.8346 32.5842 40.5116 32.5858 40.2501 32.7385C39.9887 32.8912 39.8286 33.1717 39.8301 33.4745C39.9915 35.3748 41.2116 37.0212 42.9826 37.7287H42.9911C43.3869 37.2948 43.7548 36.8362 44.0928 36.3559C41.6521 35.4491 41.525 33.6271 41.525 33.4745Z" fill="#DF4D60"/>
<path d="M30.5091 20.7629C30.335 20.7627 30.1651 20.7088 30.0227 20.6086C28.1156 19.5035 25.9314 18.9688 23.7295 19.068C21.5278 18.969 19.344 19.5037 17.4371 20.6086C17.0543 20.8688 16.5336 20.7737 16.2675 20.395C16.0013 20.0164 16.0882 19.4943 16.4625 19.2222C18.1083 18.0637 20.8252 17.373 23.7295 17.373C26.6337 17.373 29.3507 18.0637 30.9964 19.2222C31.2987 19.4348 31.4284 19.8187 31.317 20.171C31.2055 20.5233 30.8787 20.7628 30.5091 20.7629Z" fill="#DF4D60"/>
<path d="M24.5761 8.97543V4.79153C25.5195 5.00548 26.2094 5.81461 26.2715 6.77967C26.2715 7.24771 26.651 7.62713 27.1191 7.62713C27.5873 7.62713 27.9668 7.24771 27.9668 6.77967C27.8849 4.88001 26.4593 3.30901 24.5761 3.04323V2.96611C24.5761 2.49807 24.1966 2.11865 23.7285 2.11865C23.2604 2.11865 22.8808 2.49807 22.8808 2.96611V3.04323C20.9977 3.30901 19.5721 4.88001 19.4902 6.77967C19.5721 8.67933 20.9977 10.2503 22.8808 10.5161V14.7C21.9375 14.4861 21.2476 13.6769 21.1855 12.7119C21.1855 12.2438 20.806 11.8644 20.3379 11.8644C19.8697 11.8644 19.4902 12.2438 19.4902 12.7119C19.5721 14.6115 20.9977 16.1825 22.8808 16.4483V16.5254C22.8808 16.9935 23.2604 17.3729 23.7285 17.3729C24.1966 17.3729 24.5761 16.9935 24.5761 16.5254V16.4483C26.4593 16.1825 27.8849 14.6115 27.9668 12.7119C27.8849 10.8122 26.4593 9.24122 24.5761 8.97543ZM21.1855 6.77967C21.2476 5.81461 21.9375 5.00548 22.8808 4.79153V8.7678C21.9375 8.55385 21.2476 7.74473 21.1855 6.77967ZM24.5761 14.7V10.7237C25.5195 10.9377 26.2094 11.7468 26.2715 12.7119C26.2094 13.6769 25.5195 14.4861 24.5761 14.7Z" fill="#F29C1F"/>
</g>
<defs>
<clipPath id="clip0">
<rect width="50" height="50" fill="white"/>
</clipPath>
</defs>
</svg>
