<svg width="50" height="50" viewBox="0 0 50 50" fill="none" xmlns="http://www.w3.org/2000/svg">
<g clip-path="url(#clip0)">
<path d="M44.1384 33.3899C42.7944 37.0322 40.762 40.1991 38.0966 42.8019C35.0628 45.7644 31.0902 48.1184 26.289 49.7977C26.1314 49.8526 25.967 49.8976 25.8019 49.9308C25.5837 49.9739 25.3616 49.9972 25.1415 50.0002H25.0984C24.8638 50.0002 24.6281 49.9766 24.3942 49.9308C24.2291 49.8976 24.0669 49.8526 23.9101 49.7988C19.1032 48.1223 15.1257 45.7694 12.0888 42.8069C9.42229 40.2041 7.3902 37.039 6.04819 33.3968C3.60793 26.7744 3.74678 19.4792 3.85855 13.6168L3.86046 13.5268C3.88297 13.0427 3.89746 12.5342 3.90547 11.9726C3.94629 9.21577 6.13822 6.93496 8.89548 6.78123C14.6442 6.46041 19.0914 4.58548 22.8912 0.881794L22.9244 0.851277C23.5554 0.272587 24.3504 -0.0112267 25.1415 0.000598917C25.9045 0.0105172 26.6644 0.293949 27.2728 0.851277L27.3052 0.881794C31.1058 4.58548 35.553 6.46041 41.3017 6.78123C44.059 6.93496 46.2509 9.21577 46.2918 11.9726C46.2998 12.538 46.3143 13.0457 46.3368 13.5268L46.3379 13.5649C46.4493 19.4384 46.5874 26.7481 44.1384 33.3899Z" fill="#00DD80"/>
<path d="M44.1384 33.3896C42.7945 37.0318 40.762 40.1988 38.0967 42.8016C35.0629 45.7641 31.0902 48.1181 26.2891 49.7973C26.1315 49.8523 25.9671 49.8973 25.8019 49.9305C25.5837 49.9736 25.3617 49.9969 25.1416 49.9999V0.000244141C25.9045 0.0101624 26.6644 0.293595 27.2729 0.850922L27.3053 0.88144C31.1059 4.58513 35.5531 6.46006 41.3018 6.78087C44.0591 6.93461 46.251 9.21542 46.2918 11.9723C46.2999 12.5376 46.3143 13.0454 46.3369 13.5264L46.338 13.5646C46.4494 19.4381 46.5875 26.7478 44.1384 33.3896Z" fill="#00AA63"/>
<path d="M37.5583 25.0002C37.5583 31.8563 31.9915 37.4372 25.1411 37.4616H25.0972C18.2266 37.4616 12.6357 31.8712 12.6357 25.0002C12.6357 18.1295 18.2266 12.5391 25.0972 12.5391H25.1411C31.9915 12.5635 37.5583 18.1444 37.5583 25.0002Z" fill="white"/>
<path d="M37.5589 25.0002C37.5589 31.8563 31.9921 37.4372 25.1416 37.4616V12.5391C31.9921 12.5635 37.5589 18.1444 37.5589 25.0002Z" fill="#E1EBF0"/>
<path d="M30.7539 23.2056L25.1417 28.8186L23.9291 30.0313C23.6426 30.3177 23.2668 30.4608 22.8915 30.4608C22.5157 30.4608 22.1403 30.3177 21.8535 30.0313L19.2461 27.4228C18.6732 26.8498 18.6732 25.9217 19.2461 25.3483C19.8183 24.7754 20.7476 24.7754 21.3206 25.3483L22.8915 26.9192L28.6795 21.1312C29.2525 20.5578 30.1817 20.5578 30.7539 21.1312C31.3269 21.7042 31.3269 22.6334 30.7539 23.2056Z" fill="#B4D2D7"/>
<path d="M30.7538 23.2056L25.1416 28.8186V24.6686L28.6793 21.1312C29.2523 20.5578 30.1816 20.5578 30.7538 21.1312C31.3267 21.7042 31.3267 22.6334 30.7538 23.2056Z" fill="#6FA5AA"/>
</g>
<defs>
<clipPath id="clip0">
<rect width="50" height="50" fill="white"/>
</clipPath>
</defs>
</svg>
