<svg width="50" height="50" viewBox="0 0 50 50" fill="none" xmlns="http://www.w3.org/2000/svg">
<g clip-path="url(#clip0)">
<path d="M42.2939 4.1695C41.1968 2.60909 39.6771 1.42783 37.8994 0.753514L35.9127 0V6.36121L34.5428 7.20712L33.1728 6.36121V0L31.1861 0.753514C29.4084 1.42783 27.8887 2.60909 26.7917 4.1695C25.6682 5.76775 25.0742 7.64816 25.0742 9.60767C25.0742 13.0426 26.9309 16.1793 29.8781 17.8476V27.4397H39.283V17.8031C42.1839 16.1233 44.0114 13.0032 44.0114 9.60767C44.0113 7.64826 43.4174 5.76775 42.2939 4.1695Z" fill="#7985EB"/>
<path d="M45.58 32.2801C45.9495 32.9137 46.1627 33.6489 46.1627 34.434C46.1627 35.1859 45.9671 35.8937 45.6249 36.5077C45.3082 37.0787 44.8653 37.5685 44.3334 37.942C44.6961 38.5707 44.9044 39.2981 44.9044 40.0734C44.9044 41.5497 44.1545 42.854 43.0145 43.6254C43.3606 44.2443 43.5591 44.956 43.5591 45.7137C43.5591 47.7953 42.0681 49.5346 40.097 49.9198V50H18.9142L12.957 46.8987V43.5911L12.9668 43.596V29.0889H12.957V26.1558H14.6015L22.4798 19.8213H29.8781V24.5074H43.0907C45.4538 24.5074 47.377 26.4296 47.377 28.7936C47.377 30.2299 46.6672 31.5019 45.58 32.2801Z" fill="#FDD1A3"/>
<path d="M44.3334 37.9421C44.6961 38.5708 44.9044 39.2982 44.9044 40.0735C44.9044 41.5498 44.1545 42.8541 43.0145 43.6255C43.3606 44.2444 43.5591 44.9561 43.5591 45.7138C43.5591 47.7954 42.0681 49.5347 40.097 49.9199V50.0001H18.9142L12.957 46.8988V43.5913L12.9668 43.5961V36.5078H45.6249C45.3082 37.0788 44.8653 37.5686 44.3334 37.9421Z" fill="#FFBB85"/>
<path d="M13.5743 23.8132H2.62207V50H13.5743V23.8132Z" fill="#60DD4E"/>
<path d="M13.5743 36.5078H2.62207V50.0001H13.5743V36.5078Z" fill="#00C800"/>
</g>
<defs>
<clipPath id="clip0">
<rect width="50" height="50" fill="white"/>
</clipPath>
</defs>
</svg>
