<svg width="24" height="24" viewBox="0 0 24 24" fill="none" xmlns="http://www.w3.org/2000/svg">
<path d="M11.25 4.21875V7.03125C11.25 7.29014 11.0401 7.5 10.7812 7.5H5.625C5.36611 7.5 5.15625 7.29014 5.15625 7.03125V4.21875C5.15625 3.95986 5.36611 3.75 5.625 3.75H10.7812C11.0401 3.75 11.25 3.95986 11.25 4.21875ZM10.7812 7.52344H5.625C5.36611 7.52344 5.15625 7.7333 5.15625 7.99219C5.15625 8.25108 5.36611 8.46094 5.625 8.46094H10.7812C11.0401 8.46094 11.25 8.25108 11.25 7.99219C11.25 7.7333 11.0401 7.52344 10.7812 7.52344Z" fill="#EBC9A0"/>
<path d="M9.72656 5.15625C9.72656 5.35045 9.5692 5.50781 9.375 5.50781H7.03125C6.83705 5.50781 6.67969 5.35045 6.67969 5.15625C6.67969 4.96205 6.83705 4.80469 7.03125 4.80469H9.375C9.5692 4.80469 9.72656 4.96205 9.72656 5.15625Z" fill="#D7AF87"/>
<path d="M8.68716 18.8329C9.10965 19.2186 9.37501 19.7735 9.37501 20.3906C9.37501 21.5571 8.42823 22.5024 7.26123 22.5C6.15728 22.4977 5.22803 21.6255 5.16034 20.5237C5.11919 19.8536 5.39144 19.2462 5.84401 18.8329C5.86131 18.8171 5.88414 18.8086 5.90758 18.8086H8.62374C8.64713 18.8086 8.66991 18.8171 8.68716 18.8329Z" fill="#57676E"/>
<path d="M10.2205 20.1809C10.4829 20.4254 10.6473 20.7738 10.6473 21.1607C10.6473 21.9292 10 22.5465 9.22098 22.4973C8.54045 22.4542 7.99365 21.8906 7.96961 21.2092C7.95526 20.8029 8.12218 20.4356 8.39547 20.1809C8.41272 20.1648 8.43573 20.1562 8.45931 20.1562H10.1567C10.1803 20.1562 10.2033 20.1648 10.2205 20.1809Z" fill="#FFC850"/>
<path d="M18.2812 13.5938C18.2812 14.3704 17.6517 15 16.875 15C16.0983 15 15.4688 14.3704 15.4688 13.5938C15.4688 13.0733 15.7517 12.6193 16.1719 12.3761V10.7812H17.5781V12.3761C17.9983 12.6193 18.2812 13.0733 18.2812 13.5938Z" fill="#A2DAF9"/>
<path d="M18.1641 10.7812C18.1641 10.9755 18.0067 11.1328 17.8125 11.1328H15.9375C15.7433 11.1328 15.5859 10.9755 15.5859 10.7812C15.5859 10.587 15.7433 10.4297 15.9375 10.4297H17.8125C18.0067 10.4297 18.1641 10.587 18.1641 10.7812Z" fill="#70B5E8"/>
<path d="M7.96875 11.0156V15.2344C7.96875 15.3638 7.8638 15.4688 7.73438 15.4688H6.79688C6.66745 15.4688 6.5625 15.3638 6.5625 15.2344C6.5625 15.3638 6.45755 15.4688 6.32812 15.4688H5.39062C5.2612 15.4688 5.15625 15.3638 5.15625 15.2344V11.0156C5.15625 10.8862 5.2612 10.7812 5.39062 10.7812H6.32812C6.45755 10.7812 6.5625 10.8862 6.5625 11.0156C6.5625 10.8862 6.66745 10.7812 6.79688 10.7812H7.73438C7.8638 10.7812 7.96875 10.8862 7.96875 11.0156Z" fill="#F7A676"/>
<path d="M6.5625 11.0156V15.2344C6.5625 15.3638 6.45755 15.4688 6.32812 15.4688H5.39062C5.2612 15.4688 5.15625 15.3638 5.15625 15.2344V11.0156C5.15625 10.8862 5.2612 10.7812 5.39062 10.7812H6.32812C6.45755 10.7812 6.5625 10.8862 6.5625 11.0156Z" fill="#924A36"/>
<path d="M22.3125 0H21.0352H20.9062H3.09375H2.96484H1.6875C1.55808 0 1.45312 0.104953 1.45312 0.234375V23.7656C1.45312 23.895 1.55808 24 1.6875 24H2.96484H3.09375H20.9062H21.0352H22.3125C22.4419 24 22.5469 23.895 22.5469 23.7656V0.234375C22.5469 0.104953 22.4419 0 22.3125 0ZM3.32812 9.375H9.89062V14.8125H3.32812V9.375ZM20.6719 14.8125H11.7656V9.375H20.6719V14.8125ZM20.6719 1.875V7.5H3.32812V1.875H20.6719ZM3.32812 16.6875H12.2344V22.125H3.32812V16.6875ZM14.1094 22.125V16.6875H20.6719V22.125H14.1094Z" fill="#D3754F"/>
<path d="M22.5469 0.234375V23.7656C22.5469 23.895 22.4419 24 22.3125 24H21.1406C21.27 24 21.375 23.895 21.375 23.7656V0.234375C21.375 0.104953 21.27 0 21.1406 0H22.3125C22.4419 0 22.5469 0.104953 22.5469 0.234375Z" fill="#924A36"/>
</svg>
