<svg width="18" height="18" viewBox="0 0 18 18" fill="none" xmlns="http://www.w3.org/2000/svg">
<g clip-path="url(#clip0)">
<path d="M17.5362 13.2815L15.2991 11.0439C14.7022 10.447 13.6594 10.446 13.0615 11.0439L12.6885 11.4169L17.1633 15.8915L17.5362 15.5186C18.1556 14.8991 18.1536 13.8977 17.5362 13.2815Z" fill="#0071BC"/>
<path d="M11.922 12.1419C11.4513 12.5066 10.7797 12.492 10.3496 12.0609L5.92634 7.63462C5.49522 7.2035 5.4807 6.53145 5.84538 6.06187L1.38086 1.5976C-0.53976 3.83634 -0.464666 7.20968 1.65508 9.32943L8.65478 16.3322C10.6889 18.3663 14.0208 18.636 16.3867 16.6063L11.922 12.1419Z" fill="#0071BC"/>
<path d="M6.94342 2.68526L4.70633 0.447677C4.10945 -0.149204 3.06661 -0.150224 2.46875 0.447677L2.0957 0.82072L6.57052 5.29529L6.94342 4.92236C7.56281 4.30298 7.56077 3.30159 6.94342 2.68526Z" fill="#0071BC"/>
</g>
<defs>
<clipPath id="clip0">
<rect width="18" height="18" fill="white"/>
</clipPath>
</defs>
</svg>
