<svg width="24" height="24" viewBox="0 0 24 24" fill="none" xmlns="http://www.w3.org/2000/svg">
<g clip-path="url(#clip0)">
<path d="M23.9914 0.877567C23.9944 0.655941 23.9079 0.442503 23.7516 0.285263C23.5953 0.128208 23.3822 0.0405631 23.1606 0.0424239L19.1051 0.0383301C18.9917 0.0597296 18.8887 0.117974 18.8116 0.203758L9.82843 9.18675C6.49698 8.15678 2.89254 9.53064 1.09181 12.5167C-0.708921 15.5028 -0.241851 19.3318 2.22394 21.7976C4.68955 24.2634 8.51877 24.7305 11.5049 22.9298C14.4909 21.129 15.8648 17.5244 14.8346 14.193L15.7277 13.3001C15.7801 13.2462 15.8073 13.1725 15.8021 13.0975L15.5994 10.8983C15.5931 10.823 15.6203 10.7489 15.6737 10.6955C15.7271 10.6421 15.8012 10.6149 15.8765 10.6213L17.8898 10.8074C17.9647 10.8129 18.0386 10.7856 18.0918 10.7324C18.1451 10.6791 18.1724 10.6055 18.1666 10.5303L17.9806 8.51704C17.9742 8.44186 18.0014 8.36761 18.0548 8.31421C18.1082 8.26099 18.1825 8.23382 18.2576 8.24015L20.2709 8.42623C20.3459 8.43181 20.4197 8.40446 20.473 8.35124C20.5262 8.29802 20.5535 8.22414 20.5478 8.14915L20.366 6.12773C20.3596 6.05348 20.3863 5.98035 20.4389 5.92769C20.4916 5.87521 20.5647 5.84842 20.6388 5.85493L22.8504 6.05329C22.9244 6.05962 22.9974 6.03227 23.0489 5.97886L23.8839 5.11897C23.9581 5.041 23.9996 4.93735 23.9996 4.82961L23.9914 0.877567ZM6.87268 20.0096C6.29415 20.5881 5.42421 20.7611 4.66833 20.448C3.91228 20.135 3.41953 19.3973 3.41953 18.5791C3.41953 17.7609 3.91228 17.0235 4.66833 16.7103C5.42421 16.3971 6.29415 16.5704 6.87268 17.1489C7.66223 17.939 7.66223 19.2194 6.87268 20.0096Z" fill="#F29C1F"/>
<path d="M23.6992 0.232601L6.82444 17.1074C6.03043 16.3584 4.7846 16.3765 4.01272 17.1483C3.24103 17.9202 3.2228 19.1659 3.97197 19.9599L2.17775 21.7541C1.99185 21.5639 1.81396 21.3613 1.64034 21.1463C-0.424068 18.5397 -0.550604 14.8924 1.32809 12.1488C3.20679 9.40522 6.65288 8.20461 9.82969 9.18675L18.8129 0.203758C18.8899 0.117974 18.993 0.0597296 19.1063 0.0383301L23.1618 0.0424239C23.3576 0.0409352 23.548 0.108111 23.6992 0.232601Z" fill="#F0C419"/>
<path d="M11.5208 10.768C11.3537 10.768 11.2029 10.6672 11.1389 10.5127C11.0749 10.3583 11.1103 10.1806 11.2284 10.0624L17.6651 3.62577C17.7689 3.51877 17.9224 3.47597 18.0668 3.51375C18.211 3.55171 18.3238 3.66429 18.3616 3.80869C18.3995 3.9529 18.3567 4.10642 18.2496 4.21026L11.8131 10.6469C11.7357 10.7245 11.6304 10.7682 11.5208 10.768Z" fill="white"/>
<path d="M19.4528 2.91525C19.4528 2.68711 19.2678 2.50195 19.0395 2.50195C18.8111 2.50195 18.626 2.68711 18.626 2.91525C18.626 3.14357 18.8111 3.32873 19.0395 3.32873C19.2678 3.32873 19.4528 3.14357 19.4528 2.91525Z" fill="white"/>
</g>
<defs>
<clipPath id="clip0">
<rect width="24" height="24" fill="white"/>
</clipPath>
</defs>
</svg>
