<svg width="24" height="24" viewBox="0 0 24 24" fill="none" xmlns="http://www.w3.org/2000/svg">
<g clip-path="url(#clip0)">
<path d="M22.9125 19.5295C23.8293 20.4451 23.8293 21.929 22.9125 22.8445C21.9959 23.7595 20.508 23.7595 19.5912 22.8445L13.3105 16.0355L16.0792 13.2728L22.9125 19.5295Z" fill="#2BBDC4"/>
<path d="M14.6968 12.0062L16.0795 13.2728L13.3109 16.0355L12.04 14.658L14.6968 12.0062Z" fill="#495D85"/>
<path d="M23.3799 3.34021L21.295 5.43732H19.9664L18.6687 4.09534V2.76929L20.723 0.68866C20.2994 0.546204 19.8453 0.46875 19.3732 0.46875C16.4793 0.46875 14.4465 3.30927 15.3666 6.03498L11.3759 10.0184L11.3728 10.0151L5.14269 3.78314V2.45764L1.82181 0.46875L0.493531 1.79443L2.48595 5.10883L3.81404 5.10938L10.0445 11.3412L10.0472 11.3439L6.07028 15.3133C3.34437 14.3969 0.493164 16.418 0.493164 19.312C0.493164 19.7831 0.570586 20.2363 0.713321 20.6591L2.7982 18.562H4.12685L5.47145 19.9039V21.23L3.37024 23.3108C3.79386 23.4533 4.24793 23.5307 4.71999 23.5307C7.61926 23.5307 9.64489 20.6849 8.72665 17.9643C10.6528 16.0419 16.1054 10.6 18.0229 8.68616C18.4471 8.8288 18.9012 8.90607 19.3732 8.90607C21.7078 8.90607 23.6001 7.01752 23.6001 4.6875C23.6001 4.21637 23.5226 3.763 23.3799 3.34021Z" fill="#E9EEF0"/>
<path d="M16.3134 7.27258C16.0542 7.27258 15.8438 7.48206 15.8438 7.74115C15.8438 8.00006 16.0542 8.2099 16.3134 8.2099C16.5732 8.2099 16.7831 8.00006 16.7831 7.74115C16.7831 7.48206 16.5732 7.27258 16.3134 7.27258Z" fill="black"/>
<path d="M7.78021 15.7894C7.52043 15.7894 7.31055 15.9995 7.31055 16.2582C7.31055 16.5175 7.52043 16.7269 7.78021 16.7269C8.03945 16.7269 8.24988 16.5175 8.24988 16.2582C8.24988 15.9995 8.03945 15.7894 7.78021 15.7894Z" fill="black"/>
<path d="M23.4861 2.8828C23.3276 2.84599 23.161 2.89378 23.0465 3.00914L21.0994 4.96782H20.1659L19.1383 3.90526V2.96062L21.0576 1.01659C21.1711 0.901595 21.2174 0.736251 21.1798 0.578963C21.1423 0.421859 21.0264 0.29515 20.873 0.243514C20.3909 0.0812823 19.8863 -0.000932091 19.3732 -0.000932091C17.8435 -0.000932091 16.4537 0.710983 15.5603 1.95226C14.724 3.11424 14.4663 4.53826 14.8356 5.90111L11.376 9.35393L5.6123 3.5883V2.45671C5.6123 2.2921 5.5257 2.13939 5.38425 2.05479L2.06337 0.0659014C1.87844 -0.0448774 1.64196 -0.0157636 1.48968 0.136397L0.161402 1.4619C0.0091273 1.61406 -0.0200434 1.85008 0.0907687 2.03465L2.08319 5.34905C2.16795 5.49022 2.32077 5.57646 2.48571 5.57665L3.61914 5.57701L9.38339 11.3426L5.93703 14.7823C4.57151 14.4139 3.14397 14.6715 1.97916 15.5066C0.736194 16.3978 0.0234375 17.7845 0.0234375 19.3112C0.0234375 19.8232 0.105813 20.3269 0.268362 20.8079C0.320282 20.9619 0.448523 21.0782 0.607036 21.1148C0.765732 21.1516 0.932134 21.1038 1.0468 20.9885L2.99372 19.03H3.93232L5.00173 20.0973V21.0341L3.0394 22.9772C2.92382 23.0916 2.87593 23.2577 2.91281 23.4161C2.9495 23.5743 3.066 23.7023 3.22029 23.7541C3.70225 23.9163 4.20696 23.9985 4.71993 23.9985C6.24965 23.9985 7.63884 23.287 8.53194 22.0464C9.36872 20.8839 9.62685 19.4593 9.25772 18.0965L12.0256 15.334L12.6597 16.0214L12.3687 16.3116C12.1853 16.4947 12.1853 16.7915 12.3687 16.9746C12.5522 17.1575 12.8494 17.1575 13.033 16.9746L13.2965 16.7117L19.2455 23.161C19.2499 23.1658 19.2545 23.1703 19.2591 23.1749C20.3598 24.2736 22.1433 24.2739 23.2446 23.1747C24.3428 22.0781 24.3428 20.2938 23.2446 19.1971C23.2399 19.1924 23.2349 19.1878 23.23 19.1832L16.7579 13.2572L17.0184 12.9972C17.2019 12.8143 17.2019 12.5174 17.0184 12.3343C16.835 12.1512 16.5377 12.1512 16.3541 12.3343L16.0651 12.6229L15.3751 11.9908L18.1565 9.21496C18.5518 9.32042 18.9598 9.37389 19.3732 9.37389C21.963 9.37389 24.0697 7.27111 24.0697 4.68657C24.0697 4.17442 23.9873 3.67088 23.8247 3.18968C23.7728 3.03569 23.6446 2.91942 23.4861 2.8828ZM4.14642 4.77721C4.05836 4.68913 3.93892 4.64427 3.81417 4.64427L2.75191 4.64391L1.08496 1.8662L1.89458 1.05815L4.67296 2.72221V3.7824C4.67296 3.90654 4.72231 4.02556 4.81019 4.11345L10.7119 10.017L10.0475 10.6798L4.14642 4.77721ZM16.093 13.9208L22.5871 19.8668C23.3125 20.5984 23.3103 21.7831 22.5803 22.5121C21.8487 23.2423 20.6642 23.2445 19.9296 22.5185L13.9612 16.0481L16.093 13.9208ZM15.4003 13.2863L13.3244 15.3578L12.6903 14.6704L14.7103 12.6542L15.4003 13.2863ZM19.3732 8.43639C18.9624 8.43639 18.5584 8.37066 18.1728 8.24102C18.0038 8.18444 17.817 8.22802 17.6908 8.35381C15.3362 10.7038 10.2627 15.7672 8.39452 17.632C8.2683 17.7579 8.22445 17.9443 8.28151 18.1132C8.67192 19.2702 8.48516 20.5043 7.76891 21.4995C7.05469 22.4918 5.94326 23.061 4.71993 23.061C4.58251 23.061 4.44583 23.0535 4.31044 23.0391L5.80218 21.5618C5.89098 21.4739 5.94106 21.3541 5.94106 21.2291V19.903C5.94106 19.7787 5.89153 19.6595 5.80346 19.5716L4.45886 18.2296C4.3708 18.1417 4.25136 18.0923 4.12679 18.0923H2.79814C2.67284 18.0923 2.55285 18.1423 2.46461 18.2309L0.984604 19.7197C0.969927 19.5846 0.962589 19.4482 0.962589 19.311C0.962589 18.0899 1.53279 16.9808 2.52717 16.268C3.52411 15.5532 4.76084 15.3666 5.92033 15.7564C6.0893 15.8133 6.27607 15.7696 6.40229 15.6436C6.42816 15.618 15.692 6.37206 15.6986 6.36547C15.8248 6.23949 15.8685 6.05327 15.8116 5.88445C15.421 4.7274 15.6074 3.49364 16.3231 2.49919C17.0379 1.50603 18.1495 0.936568 19.373 0.936568C19.5146 0.936568 19.6553 0.944442 19.7948 0.959823L18.334 2.4395C18.2474 2.52721 18.199 2.64531 18.199 2.76836V4.09441C18.199 4.21599 18.2462 4.33263 18.3307 4.41997L19.6284 5.76195C19.7168 5.8535 19.8388 5.90514 19.9663 5.90514H21.295C21.4201 5.90514 21.5401 5.85533 21.6283 5.76653L23.1083 4.27788C23.123 4.41301 23.1303 4.54942 23.1303 4.68657C23.1303 6.7542 21.4449 8.43639 19.3732 8.43639Z" fill="black"/>
<path d="M14.6534 8.73547L8.77613 14.6013C8.59285 14.7842 8.59285 15.081 8.77613 15.2641C8.9596 15.4472 9.25699 15.4472 9.44045 15.2641L15.3177 9.39832C15.5012 9.21539 15.5012 8.91858 15.3177 8.73547C15.1343 8.55237 14.8369 8.55237 14.6534 8.73547Z" fill="black"/>
<path d="M20.5883 21.1876C20.7717 21.3701 21.0691 21.3701 21.2526 21.1865C21.4357 21.0032 21.4352 20.7064 21.2515 20.5236L17.0181 16.312C16.8344 16.1293 16.5369 16.1298 16.3539 16.3131C16.1707 16.4966 16.1712 16.7932 16.3549 16.9759L20.5883 21.1876Z" fill="black"/>
</g>
<defs>
<clipPath id="clip0">
<rect width="24" height="24" fill="white"/>
</clipPath>
</defs>
</svg>
