<svg width="24" height="24" viewBox="0 0 24 24" fill="none" xmlns="http://www.w3.org/2000/svg">
<path d="M14.7505 18.35C15.0505 17.35 15.6505 16.45 16.4505 15.75C17.9505 14.5 18.9006 12.6 18.9006 10.5C18.9006 6.59996 15.6506 3.39994 11.6505 3.59996C8.10052 3.74996 5.2005 6.74996 5.10052 10.2999C5.0505 12.5 6.00052 14.45 7.55053 15.75C8.40052 16.45 9.00052 17.35 9.30052 18.35H14.7505Z" fill="#FFD15C"/>
<path d="M11.3497 18.45H11.7997L9.79965 11C9.84967 11 9.89964 11 9.94965 11C10.1996 11 10.4497 10.9 10.6496 10.7C10.7496 10.6 10.8496 10.55 10.9996 10.55C11.1496 10.55 11.2496 10.6 11.3497 10.7C11.6997 11.1 12.2997 11.1 12.6496 10.7C12.7496 10.6 12.8497 10.55 12.9997 10.55C13.0996 10.55 13.2496 10.6 13.3497 10.7C13.5497 10.9 13.7497 11 14.0497 11C14.0997 11 14.1496 11 14.1997 11L12.2497 18.45H12.6997L14.7496 10.65C14.7496 10.55 14.7496 10.45 14.6497 10.4C14.5497 10.35 14.4496 10.4 14.3997 10.45C14.2997 10.55 14.1997 10.6 14.0997 10.6C13.9497 10.6 13.8497 10.55 13.6997 10.45C13.4997 10.25 13.2997 10.15 13.0497 10.15C12.7996 10.15 12.5997 10.25 12.3997 10.45C12.1996 10.65 11.8996 10.65 11.6997 10.45C11.5497 10.25 11.2997 10.15 11.0497 10.15C10.7997 10.15 10.5497 10.25 10.3997 10.45C10.2997 10.55 10.1497 10.6 9.99967 10.6C9.89968 10.6 9.74968 10.55 9.69967 10.45C9.64965 10.4 9.54967 10.35 9.44968 10.4C9.3497 10.45 9.29968 10.55 9.3497 10.65L11.3497 18.45Z" fill="white"/>
<path d="M10.4502 22.9501C10.7002 23.5501 11.3002 24.0001 12.0002 24.0001C12.7002 24.0001 13.3002 23.5501 13.5502 22.9501H10.4502Z" fill="#344A5E"/>
<path d="M13.8498 23.0001H10.1998C9.69979 23.0001 9.2998 22.6001 9.2998 22.1001V18.3H14.7498V22.1001C14.7498 22.6 14.3498 23.0001 13.8498 23.0001Z" fill="#344A5E"/>
<path d="M14.7 20.1999H9.29998C8.99998 20.1999 8.75 19.95 8.75 19.65C8.75 19.35 8.99998 19.1 9.29998 19.1H14.7C15 19.1 15.25 19.35 15.25 19.65C15.25 19.95 15 20.1999 14.7 20.1999Z" fill="#415A6B"/>
<path d="M14.7 21.9499H9.29998C8.99998 21.9499 8.75 21.7 8.75 21.4C8.75 21.1 8.99998 20.85 9.29998 20.85H14.7C15 20.85 15.25 21.1 15.25 21.4C15.25 21.6999 15 21.9499 14.7 21.9499Z" fill="#415A6B"/>
<path d="M12 0C11.75 0 11.5 0.200016 11.5 0.500016V2.20003C11.5 2.45002 11.7 2.70005 12 2.70005C12.3 2.70005 12.5 2.50003 12.5 2.20003V0.500016C12.5 0.200016 12.25 0 12 0Z" fill="#FFD15C"/>
<path d="M5.30017 3.05004C5.10016 2.85002 4.80016 2.85002 4.60019 3.05004C4.40022 3.25005 4.40017 3.55005 4.60019 3.75002L5.80019 4.95002C6.00021 5.15004 6.30021 5.15004 6.50018 4.95002C6.70014 4.75001 6.70019 4.45001 6.50018 4.25004L5.30017 3.05004Z" fill="#FFD15C"/>
<path d="M3.74984 9.95007H2.04982C1.79984 9.95007 1.5498 10.1501 1.5498 10.4501C1.5498 10.7001 1.74982 10.9501 2.04982 10.9501H3.74984C3.99982 10.9501 4.24985 10.7501 4.24985 10.4501C4.24985 10.2001 3.99982 9.95007 3.74984 9.95007Z" fill="#FFD15C"/>
<path d="M5.8002 15.95L4.60021 17.15C4.40019 17.3501 4.40019 17.6501 4.60021 17.85C4.80022 18.05 5.10022 18.05 5.30019 17.85L6.50019 16.65C6.7002 16.45 6.7002 16.15 6.50019 15.95C6.30017 15.7501 6.00022 15.75 5.8002 15.95Z" fill="#FFD15C"/>
<path d="M18.1997 15.9501C17.9996 15.75 17.6996 15.75 17.4996 15.9501C17.2996 16.1501 17.2996 16.4501 17.4996 16.65L18.6996 17.85C18.8996 18.0501 19.1996 18.0501 19.3996 17.85C19.5996 17.65 19.5996 17.35 19.3996 17.1501L18.1997 15.9501Z" fill="#FFD15C"/>
<path d="M21.95 9.95007H20.25C20 9.95007 19.75 10.1501 19.75 10.4501C19.75 10.7001 19.95 10.9501 20.25 10.9501H21.95C22.2 10.9501 22.45 10.7501 22.45 10.4501C22.45 10.2001 22.25 9.95007 21.95 9.95007Z" fill="#FFD15C"/>
<path d="M18.6996 3.05002L17.4996 4.25002C17.2996 4.45003 17.2996 4.75003 17.4996 4.95C17.6996 5.15002 17.9996 5.15002 18.1996 4.95L19.3996 3.75C19.5996 3.54999 19.5996 3.24999 19.3996 3.05002C19.1996 2.85005 18.8996 2.85 18.6996 3.05002Z" fill="#FFD15C"/>
</svg>
