<svg width="24" height="24" viewBox="0 0 24 24" fill="none" xmlns="http://www.w3.org/2000/svg">
<g clip-path="url(#clip0)">
<path d="M13.8261 17.2174C13.3941 17.2174 13.0435 16.8671 13.0435 16.4348V14.8696C13.0435 14.438 12.6924 14.0869 12.2609 14.0869H2.34783C1.05319 14.087 0 13.0338 0 11.7392V7.04351C0 5.74887 1.05319 4.69568 2.34783 4.69568H4.4348C4.86684 4.69568 5.21742 5.04598 5.21742 5.4783C5.21742 5.91063 4.86684 6.26093 4.4348 6.26093H2.34783C1.9163 6.26093 1.5652 6.61202 1.5652 7.04355V11.7392C1.5652 12.1707 1.9163 12.5218 2.34783 12.5218H12.2609C13.5555 12.5218 14.6087 13.575 14.6087 14.8697V16.4349C14.6087 16.8671 14.2582 17.2174 13.8261 17.2174Z" fill="#736056"/>
<path d="M13.8262 13.1323V17.2173C14.2582 17.2173 14.6088 16.867 14.6088 16.4347V14.8695C14.6088 14.1783 14.303 13.5624 13.8262 13.1323Z" fill="#665247"/>
<path d="M21.6524 10.9566H6.00018C4.70553 10.9566 3.65234 9.90337 3.65234 8.60873V5.47832C3.65234 4.18368 4.70553 3.13049 6.00018 3.13049C7.29482 3.13049 8.34801 4.18368 8.34801 5.47832C8.34801 5.68645 8.42952 5.8829 8.57779 6.03117C8.87437 6.32774 9.3869 6.32774 9.68343 6.03117C9.8317 5.8829 9.91326 5.68645 9.91326 5.47832C9.91326 4.85188 10.1578 4.26262 10.6016 3.81881C11.0454 3.37509 11.6349 3.13049 12.2611 3.13049C12.8873 3.13049 13.4768 3.37509 13.9206 3.81881C14.3644 4.26252 14.6089 4.85184 14.6089 5.47832C14.6089 5.68645 14.6905 5.8829 14.8387 6.03117C14.9869 6.17943 15.1831 6.26095 15.3915 6.26095C15.8231 6.26095 16.1742 5.90985 16.1742 5.47832C16.1742 4.18368 17.2274 3.13049 18.522 3.13049C19.8166 3.13049 20.8698 4.18368 20.8698 5.47832C20.8698 5.68645 20.9514 5.8829 21.0996 6.03117C21.2478 6.17943 21.4441 6.26095 21.6525 6.26095C22.084 6.26095 22.4351 5.90985 22.4351 5.47832C22.4351 5.04599 22.7857 4.6957 23.2177 4.6957C23.6498 4.6957 24.0003 5.04599 24.0003 5.47832V8.60877C24.0002 9.90337 22.947 10.9566 21.6524 10.9566Z" fill="#FFE0B2"/>
<path d="M23.2175 4.6957C22.7855 4.6957 22.4349 5.04599 22.4349 5.47832C22.4349 5.90985 22.0838 6.26095 21.6523 6.26095C21.4439 6.26095 21.2477 6.17938 21.0994 6.03117C20.9512 5.88295 20.8697 5.68645 20.8697 5.47832C20.8697 4.18368 19.8165 3.13049 18.5218 3.13049C17.2272 3.13049 16.174 4.18368 16.174 5.47832C16.174 5.90985 15.8229 6.26095 15.3914 6.26095C15.183 6.26095 14.9868 6.17938 14.8385 6.03117C14.6903 5.88295 14.6088 5.68645 14.6088 5.47832C14.6088 4.85188 14.3642 4.26262 13.9204 3.81881C13.8913 3.78965 13.8566 3.76879 13.8262 3.74127V10.9566H21.6523C22.9469 10.9566 24.0001 9.90337 24.0001 8.60873V5.47832C24.0002 5.04599 23.6496 4.6957 23.2175 4.6957Z" fill="#FDCD99"/>
<path d="M21.6523 0H6.00017C4.70628 0 3.65234 1.05389 3.65234 2.34783V5.47828C3.65234 5.91131 4.00184 6.26091 4.43497 6.26091C4.86809 6.26091 5.21759 5.91136 5.21759 5.47828C5.21759 5.0452 5.56709 4.69566 6.00022 4.69566C6.43334 4.69566 6.78284 5.0452 6.78284 5.47828C6.78284 6.10439 7.02804 6.69394 7.47157 7.13742C7.91496 7.58091 8.50456 7.82611 9.13066 7.82611C9.75677 7.82611 10.3464 7.58091 10.7898 7.13742C11.2333 6.69394 11.4785 6.10439 11.4785 5.47828C11.4785 5.26959 11.5619 5.07131 11.708 4.92525C12.0054 4.62787 12.5167 4.62787 12.8141 4.92525C12.9603 5.07136 13.0436 5.26959 13.0436 5.47828C13.0436 6.10439 13.2888 6.69394 13.7324 7.13742C13.7636 7.16873 13.795 7.1948 13.8262 7.22091C14.2541 7.61222 14.8071 7.82611 15.3914 7.82611C16.6853 7.82611 17.7392 6.77222 17.7392 5.47828C17.7392 5.04525 18.0887 4.69566 18.5219 4.69566C18.9549 4.69566 19.3045 5.0452 19.3045 5.47828C19.3045 6.10439 19.5497 6.69394 19.9932 7.13742C20.4367 7.58091 21.0263 7.82611 21.6524 7.82611C22.9463 7.82611 24.0002 6.77222 24.0002 5.47828V2.34783C24.0001 1.05389 22.9462 0 21.6523 0Z" fill="#88CC2A"/>
<path d="M24.0001 2.34783V5.47828C24.0001 6.77217 22.9462 7.82611 21.6523 7.82611C21.0262 7.82611 20.4366 7.58091 19.9932 7.13742C19.5497 6.69394 19.3045 6.10439 19.3045 5.47828C19.3045 5.04525 18.955 4.69566 18.5218 4.69566C18.0888 4.69566 17.7392 5.0452 17.7392 5.47828C17.7392 6.77217 16.6853 7.82611 15.3914 7.82611C14.807 7.82611 14.254 7.61222 13.8262 7.22091V0H21.6523C22.9462 0 24.0001 1.05389 24.0001 2.34783Z" fill="#7FB335"/>
<path d="M13.8263 24C12.5317 24 11.4785 22.9469 11.4785 21.6522V16.4348C11.4785 16.0025 11.8291 15.6522 12.2611 15.6522H15.3916C15.8236 15.6522 16.1742 16.0025 16.1742 16.4348V21.6522C16.1741 22.9469 15.121 24 13.8263 24Z" fill="#FF9F19"/>
<path d="M16.174 21.6522V16.4348C16.174 16.0025 15.8234 15.6522 15.3914 15.6522H13.8262V24C15.1209 24 16.174 22.9469 16.174 21.6522Z" fill="#F28618"/>
</g>
<defs>
<clipPath id="clip0">
<rect width="24" height="24" fill="white"/>
</clipPath>
</defs>
</svg>
