<svg width="24" height="24" viewBox="0 0 24 24" fill="none" xmlns="http://www.w3.org/2000/svg">
<path d="M23.952 10.2738C23.8688 10.0966 23.6911 9.98329 23.4945 9.98329H21.9999C21.0496 4.82646 16.5214 0.906372 11.0939 0.906372C4.97709 0.906372 0 5.88346 0 12.0003C0 18.1171 4.97658 23.0936 11.0939 23.0936C15.0416 23.0936 18.7232 20.9689 20.7019 17.5498C20.9807 17.0672 20.8162 16.4509 20.3332 16.1716C19.8512 15.8923 19.2343 16.0567 18.956 16.5392C17.3363 19.338 14.3236 21.0772 11.0939 21.0772C6.08923 21.0772 2.01698 17.0054 2.01698 12.0013C2.01698 6.99612 6.08923 2.92437 11.0939 2.92437C15.4046 2.92437 19.0163 5.9478 19.9364 9.9838H18.4536C18.257 9.9838 18.0798 10.0972 17.996 10.2743C17.9128 10.4515 17.9399 10.6604 18.0655 10.811L20.587 13.8365C20.683 13.9514 20.8244 14.0178 20.9745 14.0178C21.1241 14.0178 21.2661 13.9509 21.3616 13.8365L23.8831 10.811C24.0087 10.6599 24.0352 10.451 23.952 10.2738Z" fill="#0071BC"/>
<path d="M11.0938 3.42786C10.5367 3.42786 10.0853 3.87925 10.0853 4.43635V10.5557C9.62935 10.8754 9.3291 11.4023 9.3291 12.0008C9.3291 12.974 10.1211 13.766 11.0943 13.766C11.3609 13.766 11.6121 13.7022 11.8388 13.5955L15.3468 15.6201C15.5062 15.7125 15.6788 15.7559 15.8503 15.7559C16.1986 15.7559 16.5376 15.5752 16.7245 15.2514C17.0028 14.7699 16.8379 14.1526 16.3548 13.8743L12.8432 11.8466C12.7963 11.3135 12.519 10.8478 12.1033 10.5567V4.43635C12.1023 3.87976 11.6504 3.42786 11.0938 3.42786ZM11.0938 12.7565C10.6766 12.7565 10.3376 12.4169 10.3376 12.0008C10.3376 11.5841 10.6772 11.2445 11.0938 11.2445C11.5105 11.2445 11.8501 11.5841 11.8501 12.0008C11.8501 12.4169 11.5105 12.7565 11.0938 12.7565Z" fill="#0071BC"/>
</svg>
