<svg width="24" height="24" viewBox="0 0 24 24" fill="none" xmlns="http://www.w3.org/2000/svg">
<g clip-path="url(#clip0)">
<path d="M23.1724 22.3448V7.86207C23.1724 3.97704 20.023 0.827597 16.1379 0.827597C12.2529 0.827597 9.10345 3.97704 9.10345 7.86207V9.10345C8.64695 9.10481 8.27723 9.47454 8.27586 9.93104V14.069C8.27723 14.5255 8.64695 14.8952 9.10345 14.8965V16.1379C9.10345 16.8235 8.54767 17.3793 7.86207 17.3793C7.17648 17.3793 6.62069 16.8235 6.62069 16.1379V1.65518C6.84025 1.65635 7.05085 1.56823 7.20414 1.41104C7.36132 1.25775 7.44945 1.04715 7.44828 0.827597C7.44692 0.3711 7.07719 0.00137483 6.62069 1.14677e-05H0.827597C0.608042 -0.0011567 0.397443 0.0869663 0.244149 0.244149C0.0869663 0.397443 -0.0011567 0.608042 1.14677e-05 0.827597C0.00137483 1.28409 0.3711 1.65382 0.827597 1.65518V16.1379C0.827597 20.023 3.97704 23.1724 7.86207 23.1724C11.7471 23.1724 14.8965 20.023 14.8965 16.1379V14.8965C15.353 14.8952 15.7228 14.5255 15.7241 14.069V9.93104C15.7228 9.47454 15.353 9.10481 14.8965 9.10345V7.86207C14.8965 7.17648 15.4523 6.62069 16.1379 6.62069C16.8235 6.62069 17.3793 7.17648 17.3793 7.86207V22.3448C16.9236 22.3482 16.5551 22.7167 16.5517 23.1724C16.5531 23.6289 16.9228 23.9986 17.3793 24H23.1724C23.6281 23.9966 23.9966 23.6281 24 23.1724C23.9986 22.7159 23.6289 22.3462 23.1724 22.3448Z" fill="#3B97D3"/>
<path d="M7.44829 0.827598C7.44946 1.04715 7.36133 1.25775 7.20415 1.41105C7.05086 1.56823 6.84026 1.65635 6.6207 1.65518H0.827598C0.3711 1.65382 0.00137483 1.28409 1.14677e-05 0.827598C-0.0011567 0.608043 0.0869664 0.397444 0.244149 0.244149C0.397444 0.0869664 0.608043 -0.0011567 0.827598 1.14677e-05H6.6207C7.0772 0.00137483 7.44692 0.3711 7.44829 0.827598Z" fill="#BDC3C7"/>
<path d="M14.8971 9.10352H9.10395C8.64689 9.10352 8.27637 9.47404 8.27637 9.9311V14.069C8.27637 14.5261 8.64689 14.8966 9.10395 14.8966H14.8971C15.3541 14.8966 15.7246 14.5261 15.7246 14.069V9.9311C15.7246 9.47404 15.3541 9.10352 14.8971 9.10352Z" fill="#F3D55B"/>
<path d="M24 23.1724C23.9967 23.6281 23.6281 23.9966 23.1724 24H17.3793C16.9228 23.9987 16.5531 23.6289 16.5518 23.1724C16.5551 22.7168 16.9237 22.3482 17.3793 22.3448H23.1724C23.6289 22.3462 23.9987 22.7159 24 23.1724Z" fill="#BDC3C7"/>
<path d="M2.48313 4.55165C2.2546 4.55165 2.06934 4.36639 2.06934 4.13786V3.31028C2.06934 3.08175 2.2546 2.89648 2.48313 2.89648C2.71166 2.89648 2.89692 3.08175 2.89692 3.31028V4.13786C2.89692 4.36639 2.71166 4.55165 2.48313 4.55165Z" fill="white"/>
<path d="M2.48313 12C2.2546 12 2.06934 11.8147 2.06934 11.5862V5.79307C2.06934 5.56453 2.2546 5.37927 2.48313 5.37927C2.71166 5.37927 2.89692 5.56453 2.89692 5.79307V11.5862C2.89692 11.8147 2.71166 12 2.48313 12Z" fill="white"/>
</g>
<defs>
<clipPath id="clip0">
<rect width="24" height="24" fill="white"/>
</clipPath>
</defs>
</svg>
