<svg width="24" height="24" viewBox="0 0 24 24" fill="none" xmlns="http://www.w3.org/2000/svg">
<g clip-path="url(#clip0)">
<path d="M2.45788 20.9879L2.29455 20.9888C1.93676 20.9908 1.66906 20.6613 1.74413 20.3115L3.31646 12.9994H5.96746L2.97588 20.6323C2.89239 20.8458 2.68712 20.9866 2.45788 20.9879Z" fill="#8B5F46"/>
<path d="M21.5418 20.9879L21.7051 20.9888C22.0629 20.9908 22.3306 20.6613 22.2555 20.3115L20.6832 12.9994H18.0322L21.0238 20.6323C21.1073 20.8458 21.3126 20.9866 21.5418 20.9879Z" fill="#8B5F46"/>
<path d="M19.8651 3.00024H13.5637C12.7 3.00024 12 3.70026 12 4.56378V13.2684H21.4288V4.56378C21.4288 3.70026 20.7286 3.00024 19.8651 3.00024Z" fill="#FC6055"/>
<path d="M2.57129 4.56372V13.2684H12.0001V4.56372C12.0001 3.7002 11.3001 3 10.4364 3H4.13501C3.27148 3 2.57129 3.7002 2.57129 4.56372Z" fill="#FC6055"/>
<path d="M10.4361 3.00024H8.61914C9.16626 3.00024 9.60992 3.44391 9.60992 3.99103V13.2684H11.9998V4.56378C11.9998 3.70026 11.2998 3.00024 10.4361 3.00024Z" fill="#E35052"/>
<path d="M19.8767 3.00024H18.0596C18.6069 3.00024 19.0505 3.44391 19.0505 3.99103V13.2684H21.4404V4.56378C21.4404 3.70026 20.7402 3.00024 19.8767 3.00024Z" fill="#E35052"/>
<path d="M21.4289 13.0718H2.5752C2.5752 11.8957 3.52862 10.9421 4.7047 10.9421H19.2992C20.4753 10.9423 21.4289 11.8957 21.4289 13.0718Z" fill="#E35052"/>
<path d="M1.02758 15.6471C0.461058 15.6471 0 15.186 0 14.6195V8.89325C0 8.28515 0.494749 7.79041 1.10284 7.79041H1.47216C2.08025 7.79041 2.575 8.28515 2.575 8.89325V13.0722H21.4251V8.89325C21.4251 8.28515 21.9197 7.79041 22.5279 7.79041H22.8972C23.5053 7.79041 24.0001 8.28515 24.0001 8.89325V14.6195C24.0001 15.186 23.539 15.6471 22.9723 15.6471H1.02758Z" fill="#545464"/>
<path d="M22.8975 7.79041H22.5282C22.1446 7.79041 21.8064 7.98724 21.6086 8.28534V14.6195C21.6086 15.187 21.1485 15.6471 20.5811 15.6471H22.9726C23.5393 15.6471 24.0004 15.186 24.0004 14.6195V8.89325C24.0004 8.28516 23.5056 7.79041 22.8975 7.79041Z" fill="#394856"/>
</g>
<defs>
<clipPath id="clip0">
<rect width="24" height="24" fill="white"/>
</clipPath>
</defs>
</svg>
