<svg width="24" height="24" viewBox="0 0 24 24" fill="none" xmlns="http://www.w3.org/2000/svg">
<path d="M18.0254 22.4971V23.6243H6.00195V22.4971" fill="#506573"/>
<path d="M6.00195 9.72217H18.0254V10.8494H6.00195V9.72217Z" fill="#EAA017"/>
<path d="M5.62598 0.328857H18.4009V9.72217H5.62598V0.328857Z" fill="#FEEE72"/>
<path d="M5.62598 0.328857H6.75317V9.72217H5.62598V0.328857Z" fill="#EAA017"/>
<path d="M5.62598 10.8494H18.4009V22.4971H5.62598V10.8494Z" fill="#FEEE72"/>
<path d="M13.1406 20.6418H13.8921V21.3464H13.1406V20.6418Z" fill="white"/>
<path d="M11.6377 20.6418H12.3892V21.3464H11.6377V20.6418Z" fill="white"/>
<path d="M10.1348 20.6418H10.8862V21.3464H10.1348V20.6418Z" fill="white"/>
<path d="M5.62598 10.8494H6.75317V22.4971H5.62598V10.8494Z" fill="#EAA017"/>
<path d="M7.50391 2.20752H9.00684V7.46777H7.50391V2.20752Z" fill="#8CA4B8"/>
<path d="M7.50391 6.34058H9.00684V7.46777H7.50391V6.34058Z" fill="#506573"/>
<path d="M7.50391 12.728H9.00684V17.9883H7.50391V12.728Z" fill="#8CA4B8"/>
<path d="M7.50391 16.8611H9.00684V17.9883H7.50391V16.8611Z" fill="#506573"/>
<path d="M18.7295 10.0979V0H5.25V10.0979H5.62573V10.5205H5.25V22.8728H5.62573V24H8.25586V23.2954H6.33032V22.8728H17.6492V23.2954H9.00732V24H18.3538V22.8728H18.7295V10.5205H18.3538V10.0979H18.7295ZM18.0249 22.1682H5.95459V11.2251H18.0249V22.1682ZM18.0249 9.39331H15.3948V10.0979H17.6492V10.5205H6.33032V10.0979H14.6433V9.39331H5.95459V0.70459H18.0249V9.39331Z" fill="black"/>
<path d="M9.33643 1.87866H7.12891V7.84351H9.33643V1.87866ZM8.63184 7.13892H7.8335V2.58325H8.63184V7.13892Z" fill="black"/>
<path d="M9.33643 12.3992H7.12891V18.364H9.33643V12.3992ZM8.63184 17.6594H7.8335V13.1038H8.63184V17.6594Z" fill="black"/>
</svg>
