<svg width="16" height="16" viewBox="0 0 16 16" fill="none" xmlns="http://www.w3.org/2000/svg">
<g clip-path="url(#clip0)">
<path d="M15.5874 11.8057L13.5989 9.81672C13.0683 9.28616 12.1414 9.28525 11.6099 9.81672L11.2783 10.1483L15.256 14.1257L15.5874 13.7942C16.138 13.2436 16.1362 12.3535 15.5874 11.8057Z" fill="white"/>
<path d="M10.5973 10.7926C10.1789 11.1168 9.58197 11.1038 9.19963 10.7207L5.26786 6.78616C4.88464 6.40294 4.87173 5.80557 5.19589 5.38816L1.22743 1.41992C-0.479787 3.40992 -0.413037 6.40844 1.47118 8.29266L7.69314 14.5173C9.50126 16.3254 12.463 16.5652 14.566 14.761L10.5973 10.7926Z" fill="white"/>
<path d="M6.17237 2.38674L4.18384 0.397773C3.65328 -0.132789 2.72631 -0.133695 2.19487 0.397773L1.86328 0.729366L5.8409 4.70676L6.17237 4.37527C6.72293 3.8247 6.72112 2.93458 6.17237 2.38674Z" fill="white"/>
</g>
<defs>
<clipPath id="clip0">
<rect width="16" height="16" fill="white"/>
</clipPath>
</defs>
</svg>
