<svg width="16" height="16" viewBox="0 0 16 16" fill="none" xmlns="http://www.w3.org/2000/svg">
<path d="M0.333768 2.97362C2.52971 4.83334 6.38289 8.10516 7.51539 9.12531C7.66742 9.263 7.83049 9.333 7.99977 9.333C8.16871 9.333 8.33149 9.26366 8.48317 9.12663C9.61664 8.10547 13.4698 4.83334 15.6658 2.97362C15.8025 2.85806 15.8234 2.65494 15.7127 2.51366C15.4568 2.18719 15.0753 2 14.6664 2H1.33311C0.924268 2 0.542737 2.18719 0.286893 2.51369C0.176205 2.65494 0.197049 2.85806 0.333768 2.97362Z" fill="white"/>
<path d="M15.8067 3.98127C15.6885 3.92627 15.5495 3.94546 15.4512 4.02946C14.013 5.24852 12.1182 6.85921 10.6892 8.08837C10.614 8.15283 10.5717 8.24755 10.5733 8.34683C10.5749 8.4458 10.6208 8.53921 10.6983 8.60105C12.0261 9.66452 14.0271 11.1274 15.4721 12.1671C15.5297 12.2088 15.598 12.23 15.6667 12.23C15.7188 12.23 15.7709 12.2179 15.8187 12.1932C15.9301 12.1362 16.0001 12.0216 16.0001 11.8966V4.28368C16 4.1538 15.9245 4.03565 15.8067 3.98127Z" fill="white"/>
<path d="M0.528 12.1673C1.97331 11.1276 3.97463 9.66475 5.30209 8.60125C5.37956 8.53941 5.42547 8.44597 5.42709 8.34703C5.42872 8.24775 5.38641 8.15304 5.31122 8.08857C3.88216 6.85941 1.98697 5.24872 0.548844 4.02966C0.449875 3.94566 0.310562 3.92713 0.193375 3.98147C0.0755313 4.03585 0 4.154 0 4.28388V11.8968C0 12.0218 0.07 12.1364 0.181313 12.1934C0.229156 12.2182 0.28125 12.2302 0.333344 12.2302C0.402031 12.2302 0.470375 12.209 0.528 12.1673Z" fill="white"/>
<path d="M15.5915 13.074C14.196 12.0756 11.6254 10.2143 10.0909 8.96887C9.96586 8.86699 9.78486 8.87024 9.66183 8.97637C9.36073 9.23906 9.10877 9.46043 8.93005 9.62121C8.3812 10.1166 7.61948 10.1166 7.06936 9.62056C6.8913 9.46009 6.63936 9.23806 6.33823 8.97634C6.21617 8.86956 6.03486 8.86631 5.90952 8.96884C4.3802 10.2101 1.80664 12.0736 0.408859 13.074C0.331047 13.13 0.280922 13.2162 0.271172 13.3116C0.261734 13.407 0.293297 13.5017 0.358734 13.572C0.611047 13.8439 0.966515 13.9998 1.33339 13.9998H14.6667C15.0336 13.9998 15.3887 13.8439 15.6417 13.5721C15.7068 13.5021 15.7387 13.4073 15.7292 13.312C15.7195 13.2166 15.6693 13.13 15.5915 13.074Z" fill="white"/>
</svg>
